<svg xmlns="http://www.w3.org/2000/svg" viewBox="0 0 128 128">
  <!-- Chat bubble body -->
  <rect x="6" y="6" width="116" height="86" rx="20" fill="#10B981"/>
  <!-- Bubble tail (bottom-left) -->
  <polygon points="14,88 46,88 10,116" fill="#10B981"/>

  <!-- 4-pointed sparkle (main) centered at 64,49 -->
  <path d="M 64 20
           C 62 38 57 43 28 49
           C 57 55 62 60 64 78
           C 66 60 71 55 100 49
           C 71 43 66 38 64 20 Z"
        fill="white"/>

  <!-- Small accent sparkle (top-right) -->
  <path d="M 97 18
           C 96.4 22 95.5 23 91 24
           C 95.5 25 96.4 26 97 30
           C 97.6 26 98.5 25 103 24
           C 98.5 23 97.6 22 97 18 Z"
        fill="white" opacity="0.85"/>
</svg>
